 <svg  version="1.0" xmlns="http://www.w3.org/2000/svg"  width="319.000000pt" height="44.000000pt" viewBox="0 0 319.000000 44.000000"  preserveAspectRatio="xMidYMid meet">  <g transform="translate(0.000000,44.000000) scale(0.050000,-0.050000)" fill="#0f172a" stroke="none"> <path d="M120 852 c0 -16 -27 -51 -60 -79 -61 -51 -88 -213 -43 -264 9 -10 32 -64 52 -119 116 -324 253 -430 415 -320 93 63 142 63 224 0 83 -63 133 -63 231 2 l79 52 101 -55 c122 -67 240 -74 357 -21 73 33 95 35 164 14 73 -22 88 -19 169 29 l89 52 90 -53 c83 -48 97 -51 160 -28 59 21 76 20 121 -9 113 -75 571 -2 571 91 0 9 14 16 30 16 17 0 30 -7 30 -15 0 -9 39 -37 86 -63 l86 -47 80 41 c74 38 83 38 148 8 39 -17 129 -34 200 -38 452 -23 510 -22 567 8 52 27 66 26 131 -3 79 -36 547 -23 704 19 35 9 76 2 120 -22 102 -54 251 -45 354 19 108 69 163 67 234 -7 l57 -60 336 0 c246 0 339 7 351 25 23 36 33 694 11 776 l-17 69 -198 6 c-108 3 -202 -2 -208 -11 -7 -10 -70 -38 -142 -63 -71 -26 -159 -68 -194 -94 -66 -50 -135 -62 -156 -28 -28 45 -161 80 -303 80 -144 0 -150 2 -183 60 l-34 60 -216 0 c-205 0 -218 -2 -260 -50 -44 -50 -202 -97 -314 -95 -478 11 -694 53 -648 128 32 52 -494 17 -539 -36 -52 -59 -122 -53 -143 14 -14 43 -250 61 -250 19 0 -38 -129 -100 -208 -100 -73 0 -152 53 -152 103 0 39 -229 18 -255 -22 -59 -96 -263 -126 -605 -91 -149 15 -274 71 -249 112 29 47 -170 17 -220 -33 -54 -53 -119 -43 -144 22 -16 41 -238 41 -254 0 -25 -65 -90 -75 -144 -22 -58 58 -209 75 -209 23z m4750 -152 c0 -68 -119 -86 -140 -21 -19 60 6 84 77 77 52 -5 63 -15 63 -56z m1370 13 c0 -13 -70 -43 -155 -66 l-155 -43 131 -2 c73 -1 142 -13 155 -26 33 -33 33 -379 0 -412 -35 -35 -524 -33 -560 2 -49 49 -24 409 30 427 359 125 554 167 554 120z m-4100 -253 l0 -280 -60 0 -60 0 0 280 0 280 60 0 60 0 0 -280z m605 195 c-8 -47 -15 -173 -15 -280 l0 -195 -65 0 c-53 0 -65 8 -65 43 l0 44 -46 -43 c-143 -135 -334 -40 -334 166 0 177 190 277 325 170 l50 -39 14 109 c14 109 14 110 83 110 l68 0 -15 -85z m1921 -40 c-9 -69 -14 -195 -12 -280 l4 -155 -69 0 c-48 0 -69 9 -69 30 0 24 -12 22 -65 -10 -161 -98 -315 1 -315 202 0 165 195 260 325 158 60 -47 75 -27 75 102 0 76 2 78 71 78 l71 0 -16 -125z m-4344 -103 c31 -108 59 -200 63 -203 3 -4 37 87 74 202 l69 209 72 0 71 0 70 -213 71 -214 61 209 61 208 71 6 71 6 -86 -266 -85 -266 -86 0 -86 0 -61 185 c-76 225 -70 225 -144 0 l-60 -185 -89 -5 -89 -6 -78 246 c-42 135 -82 257 -87 271 -7 20 11 25 66 20 l75 -6 56 -198z m3104 185 c124 -66 110 -297 -17 -297 -44 0 -36 -19 52 -124 l81 -96 -79 0 c-72 0 -88 10 -157 99 -107 139 -166 140 -166 1 l0 -100 -70 0 -70 0 0 270 0 270 191 0 c107 0 211 -10 235 -23z m-1965 -127 c131 -68 151 -243 38 -338 -169 -142 -439 -51 -439 148 0 177 222 282 401 190z m291 -20 l12 -50 40 50 c59 75 156 70 156 -8 0 -48 -7 -56 -40 -48 -89 24 -140 -43 -140 -184 l0 -130 -70 0 -70 0 0 148 c0 81 -6 175 -12 210 -18 85 102 97 124 12z m2133 10 c50 -39 51 -39 61 0 7 28 27 40 67 40 l57 0 0 -210 0 -210 -65 0 c-44 0 -65 10 -65 30 0 24 -12 22 -65 -10 -160 -98 -315 1 -315 201 0 166 195 262 325 159z m975 -173 l0 -207 -60 0 -60 0 0 207 0 206 60 0 60 0 0 -206z m509 151 c130 -114 83 -309 -88 -360 -211 -63 -403 97 -338 283 52 147 296 191 426 77z"/> <path d="M5730 440 c7 -11 43 -20 81 -20 38 0 69 9 69 20 0 11 -37 20 -81 20 -49 0 -76 -8 -69 -20z"/> <path d="M6004 436 c-13 -13 -24 -43 -24 -66 0 -94 124 -127 162 -43 43 94 -67 180 -138 109z"/> <path d="M5730 300 c-7 -12 20 -20 69 -20 44 0 81 9 81 20 0 11 -31 20 -69 20 -38 0 -74 -9 -81 -20z"/> <path d="M2371 469 c-78 -79 5 -232 109 -199 44 14 120 86 120 115 0 81 -169 143 -229 84z"/> <path d="M4291 456 c-95 -136 68 -255 194 -141 48 43 44 90 -11 142 -61 56 -143 56 -183 -1z"/> <path d="M3140 551 l0 -71 95 0 c197 1 215 126 20 136 l-115 6 0 -71z"/> <path d="M1207 448 c-72 -110 51 -233 169 -167 68 38 87 153 32 193 -62 45 -163 32 -201 -26z"/> <path d="M3711 456 c-95 -136 68 -255 194 -141 48 43 44 90 -11 142 -61 56 -143 56 -183 -1z"/> <path d="M5091 469 c-75 -76 -10 -209 103 -209 104 0 164 139 89 207 -46 42 -150 43 -192 2z"/> </g> </svg> 